<?xml version="1.0" encoding="UTF-8" standalone="no"?>
<!-- Created with Inkscape (http://www.inkscape.org/) -->

<svg
   xmlns:dc="http://purl.org/dc/elements/1.1/"
   xmlns:cc="http://creativecommons.org/ns#"
   xmlns:rdf="http://www.w3.org/1999/02/22-rdf-syntax-ns#"
   xmlns:svg="http://www.w3.org/2000/svg"
   xmlns="http://www.w3.org/2000/svg"
   xmlns:xlink="http://www.w3.org/1999/xlink"
   xmlns:sodipodi="http://sodipodi.sourceforge.net/DTD/sodipodi-0.dtd"
   xmlns:inkscape="http://www.inkscape.org/namespaces/inkscape"
   width="256"
   height="256"
   viewBox="0 0 256.00001 256"
   id="svg2"
   version="1.1"
   inkscape:version="0.92.4 (5da689c313, 2019-01-14)"
   sodipodi:docname="icon.svg"
   inkscape:export-filename="D:\Img2Icon\resources\icon.png"
   inkscape:export-xdpi="96"
   inkscape:export-ydpi="96">
  <defs
     id="defs4">
    <linearGradient
       inkscape:collect="always"
       id="linearGradient1314">
      <stop
         style="stop-color:#81d69f;stop-opacity:1;"
         offset="0"
         id="stop1310" />
      <stop
         style="stop-color:#86ad71;stop-opacity:1"
         offset="1"
         id="stop1312" />
    </linearGradient>
    <linearGradient
       inkscape:collect="always"
       id="linearGradient1304">
      <stop
         style="stop-color:#3e6136;stop-opacity:1"
         offset="0"
         id="stop1300" />
      <stop
         style="stop-color:#44953b;stop-opacity:1"
         offset="1"
         id="stop1302" />
    </linearGradient>
    <linearGradient
       id="linearGradient1274"
       inkscape:collect="always">
      <stop
         id="stop1266"
         offset="0"
         style="stop-color:#007000;stop-opacity:1" />
      <stop
         style="stop-color:#05c401;stop-opacity:1"
         offset="0.47391358"
         id="stop1268" />
      <stop
         id="stop1280"
         offset="0.52019036"
         style="stop-color:#32f807;stop-opacity:1" />
      <stop
         id="stop1270"
         offset="0.56077349"
         style="stop-color:#03ee00;stop-opacity:1" />
      <stop
         id="stop1272"
         offset="1"
         style="stop-color:#38fe00;stop-opacity:1" />
    </linearGradient>
    <linearGradient
       inkscape:collect="always"
       id="linearGradient1254">
      <stop
         style="stop-color:#00ff00;stop-opacity:1"
         offset="0"
         id="stop1250" />
      <stop
         id="stop1260"
         offset="0.5"
         style="stop-color:#00e200;stop-opacity:1;" />
      <stop
         style="stop-color:#00d300;stop-opacity:1;"
         offset="0.75"
         id="stop1262" />
      <stop
         style="stop-color:#00c500;stop-opacity:1"
         offset="1"
         id="stop1252" />
    </linearGradient>
    <linearGradient
       inkscape:collect="always"
       id="linearGradient944">
      <stop
         style="stop-color:#007400;stop-opacity:1"
         offset="0"
         id="stop940" />
      <stop
         id="stop958"
         offset="0.76961201"
         style="stop-color:#006c00;stop-opacity:1" />
      <stop
         style="stop-color:#00be00;stop-opacity:1"
         offset="0.87720233"
         id="stop960" />
      <stop
         id="stop964"
         offset="0.88609707"
         style="stop-color:#38ff08;stop-opacity:1" />
      <stop
         id="stop962"
         offset="0.89499176"
         style="stop-color:#00ed00;stop-opacity:1;" />
      <stop
         style="stop-color:#3aff00;stop-opacity:1"
         offset="1"
         id="stop942" />
    </linearGradient>
    <linearGradient
       inkscape:collect="always"
       id="linearGradient5239">
      <stop
         style="stop-color:#fde3a7;stop-opacity:1"
         offset="0"
         id="stop5241" />
      <stop
         id="stop5247"
         offset="0.23921256"
         style="stop-color:#e6cb31;stop-opacity:1" />
      <stop
         style="stop-color:#dc612a;stop-opacity:1"
         offset="1"
         id="stop5243" />
    </linearGradient>
    <linearGradient
       inkscape:collect="always"
       id="linearGradient5219">
      <stop
         style="stop-color:#9599a3;stop-opacity:1"
         offset="0"
         id="stop5221" />
      <stop
         id="stop5227"
         offset="0.75113082"
         style="stop-color:#e0e1e4;stop-opacity:1" />
      <stop
         style="stop-color:#656977;stop-opacity:1"
         offset="1"
         id="stop5223" />
    </linearGradient>
    <linearGradient
       inkscape:collect="always"
       id="linearGradient5201">
      <stop
         style="stop-color:#abafb7;stop-opacity:1"
         offset="0"
         id="stop5203" />
      <stop
         style="stop-color:#616573;stop-opacity:1"
         offset="1"
         id="stop5205" />
    </linearGradient>
    <linearGradient
       inkscape:collect="always"
       id="linearGradient5193">
      <stop
         style="stop-color:#7b7f8b;stop-opacity:1"
         offset="0"
         id="stop5195" />
      <stop
         style="stop-color:#8e999f;stop-opacity:1"
         offset="1"
         id="stop5197" />
    </linearGradient>
    <linearGradient
       inkscape:collect="always"
       id="linearGradient5183">
      <stop
         style="stop-color:#ffff82;stop-opacity:1"
         offset="0"
         id="stop5185" />
      <stop
         style="stop-color:#fffad7;stop-opacity:1"
         offset="1"
         id="stop5187" />
    </linearGradient>
    <linearGradient
       inkscape:collect="always"
       id="linearGradient5173">
      <stop
         style="stop-color:#fff573;stop-opacity:1"
         offset="0"
         id="stop5175" />
      <stop
         style="stop-color:#ffe531;stop-opacity:1"
         offset="1"
         id="stop5177" />
    </linearGradient>
    <linearGradient
       inkscape:collect="always"
       id="linearGradient5165">
      <stop
         style="stop-color:#d5ac04;stop-opacity:0.82745099"
         offset="0"
         id="stop5167" />
      <stop
         style="stop-color:#e7be0a;stop-opacity:1"
         offset="1"
         id="stop5169" />
    </linearGradient>
    <linearGradient
       inkscape:collect="always"
       id="linearGradient4331">
      <stop
         style="stop-color:#6683ff;stop-opacity:1"
         offset="0"
         id="stop4334" />
      <stop
         style="stop-color:#64e0ff;stop-opacity:1"
         offset="1"
         id="stop4336" />
    </linearGradient>
    <linearGradient
       inkscape:collect="always"
       id="linearGradient4224">
      <stop
         style="stop-color:#9393ca;stop-opacity:1"
         offset="0"
         id="stop4226" />
      <stop
         style="stop-color:#527eca;stop-opacity:0;"
         offset="1"
         id="stop4228" />
    </linearGradient>
    <linearGradient
       inkscape:collect="always"
       id="linearGradient4214">
      <stop
         style="stop-color:#527eca;stop-opacity:1"
         offset="0"
         id="stop4216" />
      <stop
         style="stop-color:#e0f3eb;stop-opacity:1"
         offset="1"
         id="stop4218" />
    </linearGradient>
    <linearGradient
       inkscape:collect="always"
       id="linearGradient4200">
      <stop
         style="stop-color:#003399;stop-opacity:1"
         offset="0"
         id="stop4202" />
      <stop
         id="stop4208"
         offset="0.5"
         style="stop-color:#597bbd;stop-opacity:1" />
      <stop
         style="stop-color:#d0eee0;stop-opacity:1"
         offset="1"
         id="stop4204" />
    </linearGradient>
    <linearGradient
       inkscape:collect="always"
       id="linearGradient4339">
      <stop
         style="stop-color:#8fe3ab;stop-opacity:1"
         offset="0"
         id="stop4341" />
      <stop
         style="stop-color:#006633;stop-opacity:1"
         offset="1"
         id="stop4343" />
    </linearGradient>
    <linearGradient
       inkscape:collect="always"
       id="linearGradient4329">
      <stop
         style="stop-color:#004033;stop-opacity:1"
         offset="0"
         id="stop4331" />
      <stop
         style="stop-color:#0b9d3c;stop-opacity:1"
         offset="1"
         id="stop4333" />
    </linearGradient>
    <linearGradient
       inkscape:collect="always"
       id="linearGradient4268">
      <stop
         style="stop-color:#0f6c42;stop-opacity:1"
         offset="0"
         id="stop4270" />
      <stop
         style="stop-color:#006633;stop-opacity:0.65882355"
         offset="1"
         id="stop4272" />
    </linearGradient>
    <linearGradient
       inkscape:collect="always"
       id="linearGradient4258">
      <stop
         style="stop-color:#0f8542;stop-opacity:1"
         offset="0"
         id="stop4260" />
      <stop
         style="stop-color:#e4f8eb;stop-opacity:1"
         offset="1"
         id="stop4262" />
    </linearGradient>
    <linearGradient
       inkscape:collect="always"
       id="linearGradient4238">
      <stop
         style="stop-color:#003100;stop-opacity:1"
         offset="0"
         id="stop4240" />
      <stop
         style="stop-color:#7de27d;stop-opacity:1"
         offset="1"
         id="stop4242" />
    </linearGradient>
    <linearGradient
       inkscape:collect="always"
       id="linearGradient4219">
      <stop
         style="stop-color:#022689;stop-opacity:1"
         offset="0"
         id="stop4221" />
      <stop
         style="stop-color:#7c7c7d;stop-opacity:0.35151514"
         offset="1"
         id="stop4223" />
    </linearGradient>
    <linearGradient
       inkscape:collect="always"
       id="linearGradient4207">
      <stop
         style="stop-color:#5b64ff;stop-opacity:1"
         offset="0"
         id="stop4209" />
      <stop
         style="stop-color:#859eff;stop-opacity:1"
         offset="1"
         id="stop4211" />
    </linearGradient>
    <linearGradient
       inkscape:collect="always"
       id="linearGradient4197">
      <stop
         style="stop-color:#002488;stop-opacity:1"
         offset="0"
         id="stop4199" />
      <stop
         style="stop-color:#88b0ff;stop-opacity:1"
         offset="1"
         id="stop4201" />
    </linearGradient>
    <linearGradient
       inkscape:collect="always"
       id="linearGradient4187">
      <stop
         style="stop-color:#7db8ff;stop-opacity:1"
         offset="0"
         id="stop4189" />
      <stop
         style="stop-color:#e2e2ff;stop-opacity:0.39215687"
         offset="1"
         id="stop4191" />
    </linearGradient>
    <linearGradient
       inkscape:collect="always"
       id="linearGradient4175">
      <stop
         style="stop-color:#0057ff;stop-opacity:1"
         offset="0"
         id="stop4177" />
      <stop
         style="stop-color:#82a5ff;stop-opacity:1"
         offset="1"
         id="stop4179" />
    </linearGradient>
    <linearGradient
       inkscape:collect="always"
       id="linearGradient4167">
      <stop
         style="stop-color:#00e0ff;stop-opacity:1"
         offset="0"
         id="stop4169" />
      <stop
         style="stop-color:#9ff7ff;stop-opacity:1"
         offset="1"
         id="stop4171" />
    </linearGradient>
    <linearGradient
       inkscape:collect="always"
       id="linearGradient4149">
      <stop
         style="stop-color:#003eff;stop-opacity:1"
         offset="0"
         id="stop4151" />
      <stop
         style="stop-color:#8db3dd;stop-opacity:1"
         offset="1"
         id="stop4153" />
    </linearGradient>
    <linearGradient
       inkscape:collect="always"
       xlink:href="#linearGradient4331"
       id="linearGradient4525"
       gradientUnits="userSpaceOnUse"
       gradientTransform="translate(158.69335,-23.048855)"
       x1="394.22168"
       y1="658.00684"
       x2="394.60254"
       y2="675.16943" />
    <linearGradient
       inkscape:collect="always"
       xlink:href="#linearGradient4200"
       id="linearGradient4527"
       gradientUnits="userSpaceOnUse"
       gradientTransform="translate(99.466838,40.266581)"
       x1="445.05676"
       y1="678.81458"
       x2="366.1488"
       y2="686.81201" />
    <linearGradient
       inkscape:collect="always"
       xlink:href="#linearGradient4214"
       id="linearGradient4529"
       gradientUnits="userSpaceOnUse"
       x1="536.79272"
       y1="703.22076"
       x2="469.34778"
       y2="721.34827" />
    <linearGradient
       inkscape:collect="always"
       xlink:href="#linearGradient4224"
       id="linearGradient4531"
       gradientUnits="userSpaceOnUse"
       x1="536.66003"
       y1="712.16077"
       x2="524.67145"
       y2="715.09314" />
    <linearGradient
       inkscape:collect="always"
       xlink:href="#linearGradient4329"
       id="linearGradient4533"
       gradientUnits="userSpaceOnUse"
       x1="523.5661"
       y1="726.15271"
       x2="455.42261"
       y2="737.99811" />
    <linearGradient
       inkscape:collect="always"
       xlink:href="#linearGradient4339"
       id="linearGradient4535"
       gradientUnits="userSpaceOnUse"
       gradientTransform="translate(100,40)"
       x1="362.68567"
       y1="686.77802"
       x2="421.94513"
       y2="686.77802" />
    <linearGradient
       inkscape:collect="always"
       xlink:href="#linearGradient4238"
       id="linearGradient4559"
       gradientUnits="userSpaceOnUse"
       gradientTransform="translate(100,40)"
       x1="446.9437"
       y1="687.98529"
       x2="394.87628"
       y2="694.0661" />
    <linearGradient
       inkscape:collect="always"
       xlink:href="#linearGradient4258"
       id="linearGradient4561"
       gradientUnits="userSpaceOnUse"
       x1="533.42975"
       y1="722.49457"
       x2="495.80099"
       y2="738.21582" />
    <linearGradient
       inkscape:collect="always"
       xlink:href="#linearGradient4268"
       id="linearGradient4563"
       gradientUnits="userSpaceOnUse"
       gradientTransform="translate(0.13436944,0.26873888)"
       x1="542.07544"
       y1="721.31097"
       x2="535.2226"
       y2="726.28265" />
    <linearGradient
       inkscape:collect="always"
       xlink:href="#linearGradient4149"
       id="linearGradient5059"
       gradientUnits="userSpaceOnUse"
       gradientTransform="translate(0,40)"
       x1="452.6272"
       y1="710.19562"
       x2="388.40973"
       y2="726.53595" />
    <linearGradient
       inkscape:collect="always"
       xlink:href="#linearGradient4167"
       id="linearGradient5061"
       gradientUnits="userSpaceOnUse"
       gradientTransform="translate(0,30)"
       x1="451.31998"
       y1="713.46375"
       x2="372.06937"
       y2="735.19635" />
    <linearGradient
       inkscape:collect="always"
       xlink:href="#linearGradient4175"
       id="linearGradient5063"
       gradientUnits="userSpaceOnUse"
       gradientTransform="translate(0,40)"
       x1="449.42056"
       y1="702.36023"
       x2="376.3183"
       y2="706.11853" />
    <linearGradient
       inkscape:collect="always"
       xlink:href="#linearGradient4187"
       id="linearGradient5065"
       gradientUnits="userSpaceOnUse"
       gradientTransform="translate(0,40)"
       x1="449.35913"
       y1="701.61694"
       x2="384.32462"
       y2="718.12073" />
    <linearGradient
       inkscape:collect="always"
       xlink:href="#linearGradient4197"
       id="linearGradient5067"
       gradientUnits="userSpaceOnUse"
       x1="448.35532"
       y1="737.40137"
       x2="383.3035"
       y2="750.14685" />
    <linearGradient
       inkscape:collect="always"
       xlink:href="#linearGradient4207"
       id="linearGradient5069"
       gradientUnits="userSpaceOnUse"
       x1="411.20261"
       y1="743.84491"
       x2="394.72815"
       y2="746.3161" />
    <linearGradient
       inkscape:collect="always"
       xlink:href="#linearGradient4219"
       id="linearGradient5071"
       gradientUnits="userSpaceOnUse"
       gradientTransform="translate(0,40)"
       x1="443.49005"
       y1="693.49072"
       x2="365.05902"
       y2="708.68402" />
    <linearGradient
       inkscape:collect="always"
       xlink:href="#linearGradient5165"
       id="linearGradient5171"
       x1="460.79617"
       y1="607.23834"
       x2="424.75095"
       y2="671.75446"
       gradientUnits="userSpaceOnUse" />
    <linearGradient
       inkscape:collect="always"
       xlink:href="#linearGradient5173"
       id="linearGradient5179"
       x1="458.64563"
       y1="611.3858"
       x2="426.74786"
       y2="667.91418"
       gradientUnits="userSpaceOnUse" />
    <linearGradient
       inkscape:collect="always"
       xlink:href="#linearGradient5183"
       id="linearGradient5189"
       x1="425.48737"
       y1="631.72736"
       x2="404.72675"
       y2="671.64209"
       gradientUnits="userSpaceOnUse"
       gradientTransform="translate(20)" />
    <linearGradient
       inkscape:collect="always"
       xlink:href="#linearGradient5193"
       id="linearGradient5199"
       x1="425.1235"
       y1="671.90131"
       x2="411.26724"
       y2="697.12665"
       gradientUnits="userSpaceOnUse" />
    <linearGradient
       inkscape:collect="always"
       xlink:href="#linearGradient5201"
       id="linearGradient5207"
       x1="416.00592"
       y1="681.93066"
       x2="421.49921"
       y2="684.66589"
       gradientUnits="userSpaceOnUse" />
    <linearGradient
       inkscape:collect="always"
       xlink:href="#linearGradient5219"
       id="linearGradient5225"
       x1="416.23422"
       y1="684.6712"
       x2="418.52762"
       y2="685.99182"
       gradientUnits="userSpaceOnUse" />
    <radialGradient
       inkscape:collect="always"
       xlink:href="#linearGradient5239"
       id="radialGradient5245"
       cx="409.6326"
       cy="700.35535"
       fx="409.6326"
       fy="700.35535"
       r="4.4961905"
       gradientTransform="matrix(1.0603925,0.31788905,-0.63389357,2.1144986,419.48052,-912.2022)"
       gradientUnits="userSpaceOnUse" />
    <radialGradient
       inkscape:collect="always"
       xlink:href="#linearGradient944"
       id="radialGradient948"
       cx="515.06238"
       cy="692.66626"
       fx="515.06238"
       fy="692.66626"
       r="43.035641"
       gradientUnits="userSpaceOnUse"
       gradientTransform="translate(-1.3066522,-3.0488552)" />
    <radialGradient
       inkscape:collect="always"
       xlink:href="#linearGradient1254"
       id="radialGradient1256"
       cx="550.50702"
       cy="711.88477"
       fx="550.50702"
       fy="711.88477"
       r="11.08731"
       gradientTransform="matrix(0.68047486,0.4655935,-0.86949867,1.2707909,792.42785,-447.94749)"
       gradientUnits="userSpaceOnUse" />
    <linearGradient
       inkscape:collect="always"
       xlink:href="#linearGradient1274"
       id="linearGradient1276"
       x1="541.09869"
       y1="712.82404"
       x2="549.49902"
       y2="718.48615"
       gradientUnits="userSpaceOnUse"
       gradientTransform="translate(-1.3066522,-3.0488552)" />
    <radialGradient
       inkscape:collect="always"
       xlink:href="#linearGradient944"
       id="radialGradient1294"
       gradientUnits="userSpaceOnUse"
       cx="515.06238"
       cy="692.66626"
       fx="515.06238"
       fy="692.66626"
       r="43.035641" />
    <linearGradient
       inkscape:collect="always"
       xlink:href="#linearGradient1274"
       id="linearGradient1296"
       gradientUnits="userSpaceOnUse"
       x1="541.09869"
       y1="712.82404"
       x2="549.49902"
       y2="718.48615" />
    <linearGradient
       inkscape:collect="always"
       xlink:href="#linearGradient1304"
       id="linearGradient1306"
       x1="499.00446"
       y1="686.27637"
       x2="517.43372"
       y2="682.35638"
       gradientUnits="userSpaceOnUse"
       gradientTransform="translate(-1.3066522,-3.0488552)" />
    <linearGradient
       inkscape:collect="always"
       xlink:href="#linearGradient1314"
       id="linearGradient1316"
       x1="499.6507"
       y1="680.77045"
       x2="517.48816"
       y2="675.13605"
       gradientUnits="userSpaceOnUse"
       gradientTransform="translate(-2.0487122,-1.9781352)" />
    <linearGradient
       inkscape:collect="always"
       xlink:href="#linearGradient4331"
       id="linearGradient1355"
       gradientUnits="userSpaceOnUse"
       gradientTransform="translate(158.69335,-23.048855)"
       x1="394.22168"
       y1="658.00684"
       x2="394.60254"
       y2="675.16943" />
    <radialGradient
       inkscape:collect="always"
       xlink:href="#linearGradient944"
       id="radialGradient1357"
       gradientUnits="userSpaceOnUse"
       gradientTransform="translate(-1.3066522,-3.0488552)"
       cx="515.06238"
       cy="692.66626"
       fx="515.06238"
       fy="692.66626"
       r="43.035641" />
    <linearGradient
       inkscape:collect="always"
       xlink:href="#linearGradient1274"
       id="linearGradient1359"
       gradientUnits="userSpaceOnUse"
       gradientTransform="translate(-1.3066522,-3.0488552)"
       x1="541.09869"
       y1="712.82404"
       x2="549.49902"
       y2="718.48615" />
    <linearGradient
       inkscape:collect="always"
       xlink:href="#linearGradient1314"
       id="linearGradient1361"
       gradientUnits="userSpaceOnUse"
       gradientTransform="translate(-2.0487122,-1.9781352)"
       x1="499.6507"
       y1="680.77045"
       x2="517.48816"
       y2="675.13605" />
  </defs>
  <sodipodi:namedview
     id="base"
     pagecolor="#ffffff"
     bordercolor="#666666"
     borderopacity="1.0"
     inkscape:pageopacity="0.0"
     inkscape:pageshadow="2"
     inkscape:zoom="1.6234774"
     inkscape:cx="-37.0381"
     inkscape:cy="168.32754"
     inkscape:document-units="px"
     inkscape:current-layer="layer1"
     showgrid="false"
     showguides="false"
     inkscape:window-width="1366"
     inkscape:window-height="707"
     inkscape:window-x="-8"
     inkscape:window-y="-8"
     inkscape:window-maximized="1"
     fit-margin-left="1"
     fit-margin-bottom="1"
     fit-margin-top="1"
     fit-margin-right="1"
     units="px" />
  <metadata
     id="metadata7">
    <rdf:RDF>
      <cc:Work
         rdf:about="">
        <dc:format>image/svg+xml</dc:format>
        <dc:type
           rdf:resource="http://purl.org/dc/dcmitype/StillImage" />
        <dc:title></dc:title>
      </cc:Work>
    </rdf:RDF>
  </metadata>
  <g
     inkscape:label="Layer 1"
     inkscape:groupmode="layer"
     id="layer1"
     transform="translate(-471.48309,-488.869)">
    <g
       id="g1353"
       transform="matrix(1.535392,0,0,1.5369573,-243.08281,-414.14798)"
       style="stroke-width:0.65096772">
      <path
         sodipodi:nodetypes="cccccc"
         inkscape:connector-curvature="0"
         id="path4438"
         d="M 474.67045,634.59277 595.4334,609.09106 624.22565,697.1131 498.07636,725.4698 485.52925,678.19247 Z"
         style="fill:#ffffff;fill-opacity:1;fill-rule:evenodd;stroke:#333333;stroke-width:0.32548386;stroke-linecap:butt;stroke-linejoin:miter;stroke-miterlimit:4;stroke-dasharray:none;stroke-opacity:1" />
      <path
         sodipodi:nodetypes="cscssccsccsssccsccccc"
         style="fill:url(#linearGradient1355);fill-opacity:1;fill-rule:evenodd;stroke:none;stroke-width:0.65096772px;stroke-linecap:butt;stroke-linejoin:miter;stroke-opacity:1"
         d="m 485.91873,640.84186 c 0,0 26.34385,-8.29096 30.22188,-6.95371 3.87803,1.33725 27.6811,-0.93608 31.9603,-3.61058 4.27921,-2.6745 7.48861,-1.73842 8.02351,-0.40117 0.5349,1.33725 2.1396,3.07567 3.34313,2.00587 1.20353,-1.0698 2.00588,-2.80822 3.61058,-2.40705 1.6047,0.40118 0.66862,3.2094 -1.47098,3.7443 -2.1396,0.53491 -13.50624,2.80823 -14.04114,4.14548 -0.5349,1.33725 -3.47685,3.87803 -0.5349,4.27921 2.94196,0.40117 5.48273,-3.20941 7.62233,-3.34313 2.13961,-0.13373 3.87803,0.66863 2.40706,1.87215 -1.47098,1.20353 -4.27921,5.61646 -3.74431,6.68626 0.5349,1.0698 3.74431,-1.0698 5.61646,-1.0698 1.87215,0 7.48861,-0.40118 7.48861,-0.40118 4.42939,-6.31167 8.32551,-12.56409 10.16311,-18.58779 0,0 7.4886,-0.26745 9.49448,-1.6047 2.00588,-1.33725 5.08155,-2.67451 5.08155,-2.67451 l 6.01763,20.1925 -67.39746,32.4952 -30.49994,14.0232 z"
         id="path4489"
         inkscape:connector-curvature="0" />
      <g
         transform="translate(58.693348,-63.048855)"
         id="g4493"
         style="stroke-width:0.65096772">
        <path
           inkscape:connector-curvature="0"
           id="path4495"
           d="m 468.81461,722.61456 c 0,0 26.65809,-4.79846 28.25757,-7.19768 1.59949,-2.39923 6.93111,-3.59885 9.99679,-3.73214 3.06568,-0.13329 11.0631,0.13329 13.46233,-0.93303 2.39923,-1.06632 14.27102,-7.86413 16.53696,-8.13072 2.26594,-0.26658 7.18874,21.99292 7.18874,21.99292 l -84.37284,8.26401 z"
           style="fill:url(#linearGradient4527);fill-opacity:1;fill-rule:evenodd;stroke:none;stroke-width:0.65096772px;stroke-linecap:butt;stroke-linejoin:miter;stroke-opacity:1"
           sodipodi:nodetypes="cssssccc" />
        <path
           style="fill:url(#linearGradient4529);fill-opacity:1;fill-rule:evenodd;stroke:none;stroke-width:0.65096772px;stroke-linecap:butt;stroke-linejoin:miter;stroke-opacity:1"
           d="m 537.05931,701.82125 c 0,0 -11.46298,4.79846 -13.8622,5.86478 -2.39923,1.06632 -0.13329,1.86607 -2.39923,2.53252 -2.26594,0.66645 -16.92788,1.19961 -18.79395,1.86606 -1.86606,0.66646 -4.53188,3.19898 -8.93046,4.53188 -4.39858,1.3329 -23.99228,5.86696 -23.99228,5.86696 0,0 23.19254,-1.86825 26.5248,-3.33444 3.33226,-1.4662 9.86349,-4.66517 13.99549,-4.79846 4.13201,-0.13329 10.79653,-0.13329 13.06247,-1.46619 2.26593,-1.33291 3.73213,-2.39923 6.39794,-3.99871 2.6658,-1.59949 10.39665,-3.33227 10.39665,-3.33227 l -1.59949,-2.79909 z"
           id="path4497"
           inkscape:connector-curvature="0"
           sodipodi:nodetypes="csssscssssccc" />
        <path
           style="fill:url(#linearGradient4531);fill-opacity:1;fill-rule:evenodd;stroke:none;stroke-width:0.65096772px;stroke-linecap:butt;stroke-linejoin:miter;stroke-opacity:1"
           d="m 523.59762,715.28359 c 0,0 3.86542,-0.39988 5.06504,-1.19962 1.19961,-0.79974 8.13071,-0.79974 7.86413,-1.59948 -0.26658,-0.79975 -6.66452,-0.66646 -9.06375,0.39987 -2.39922,1.06632 -3.86542,2.39923 -3.86542,2.39923 z"
           id="path4499"
           inkscape:connector-curvature="0" />
      </g>
      <g
         id="g4501"
         transform="translate(58.160186,-62.782274)"
         style="stroke-width:0.65096772">
        <path
           sodipodi:nodetypes="csssccc"
           inkscape:connector-curvature="0"
           id="path4503"
           d="m 461.22195,726.77617 c 0,0 29.92518,-8.35411 35.91022,-8.35411 5.98504,0 24.18953,1.12219 25.18703,2.49376 0.99751,1.37157 2.86784,7.10723 0.62345,8.4788 -2.24439,1.37157 -15.46135,13.8404 -15.46135,13.8404 l -51.62095,4.86285 z"
           style="fill:url(#linearGradient4533);fill-opacity:1;fill-rule:evenodd;stroke:none;stroke-width:0.65096772px;stroke-linecap:butt;stroke-linejoin:miter;stroke-opacity:1" />
        <path
           sodipodi:nodetypes="cssssssscsssssscsccssc"
           inkscape:connector-curvature="0"
           id="path4505"
           d="m 468.70324,734.25747 c 0,0 7.60599,-3.36659 8.4788,-3.36659 0.87282,0 0.24938,4.11472 1.37158,4.11472 1.12219,0 5.2369,0.9975 5.36159,-0.24938 0.12469,-1.24688 -0.9975,-0.49875 -1.37157,-1.24688 -0.37406,-0.74813 -1.62095,-2.99252 0.49875,-3.2419 2.1197,-0.24937 1.87033,1.99501 3.49128,2.36908 1.62094,0.37406 0.9975,-1.99501 1.49626,-2.24439 0.49875,-0.24938 1.24688,0.87282 1.62094,-0.24938 0.37407,-1.12219 -3.86533,-1.74563 -4.2394,-4.73815 -0.37406,-2.99252 6.48379,-5.98504 7.4813,-4.98753 0.9975,0.9975 -0.99751,3.74065 0,4.48878 0.9975,0.74813 8.22942,0.24937 9.47631,0.62344 1.24688,0.37406 1.49626,1.37157 2.99252,1.37157 1.49626,0 2.86783,-4.61347 4.11471,-4.73816 1.24688,-0.12468 -0.99751,1.74564 -0.62344,2.86783 0.37406,1.1222 2.49376,-0.62344 3.1172,-0.62344 0.62345,0 6.98255,5.3616 6.98255,5.3616 l 4.2334,-8.03263 c -2.3091,-2.61111 -11.70868,-2.32005 -16.57754,-2.93994 -10.50719,-1.33775 -19.64597,-0.148 -42.96309,7.41874 -7.63196,2.47668 5.05785,8.04261 5.05785,8.04261 z"
           style="fill:url(#linearGradient4535);fill-opacity:1;fill-rule:evenodd;stroke:none;stroke-width:0.65096772px;stroke-linecap:butt;stroke-linejoin:miter;stroke-opacity:1" />
      </g>
      <g
         id="g4551"
         transform="translate(58.693348,-63.048855)"
         style="stroke-width:0.65096772">
        <path
           inkscape:connector-curvature="0"
           id="path4553"
           d="m 496.20647,736.06142 c 0,0 8.93128,-6.08087 11.2116,-7.22103 2.28033,-1.14016 10.26146,-6.46092 13.68195,-7.22103 3.42049,-0.76011 22.04314,-0.95014 22.04314,-0.95014 l 3.99057,13.49193 -52.25745,7.22103 z"
           style="fill:url(#linearGradient4559);fill-opacity:1;fill-rule:evenodd;stroke:none;stroke-width:0.65096772px;stroke-linecap:butt;stroke-linejoin:miter;stroke-opacity:1" />
        <path
           sodipodi:nodetypes="csccccsssssssc"
           inkscape:connector-curvature="0"
           id="path4555"
           d="m 499.07724,737.22377 c 0,0 1.07496,-1.88117 1.7468,-1.88117 0.67185,0 3.49361,-0.40311 3.49361,-0.40311 l 2.14991,-3.0905 h 5.24041 l 0.94058,-3.09049 c 0,0 8.06217,0.80621 8.19654,-0.67185 0.13437,-1.47806 -2.41865,-1.34369 -2.14991,-2.41865 0.26874,-1.07496 6.71847,0.80622 6.85284,-0.26874 0.13437,-1.07495 0.53748,-2.14991 2.01554,-2.41865 1.47807,-0.26874 6.98722,-1.34369 8.19654,-1.88117 1.20933,-0.53747 -11.95888,-0.40311 -14.64627,0.40311 -2.68739,0.80621 -23.38028,12.09324 -25.53019,15.85559 -1.5549,2.72108 3.4936,-0.13437 3.4936,-0.13437 z"
           style="fill:url(#linearGradient4561);fill-opacity:1;fill-rule:evenodd;stroke:none;stroke-width:0.65096772px;stroke-linecap:butt;stroke-linejoin:miter;stroke-opacity:1" />
        <path
           inkscape:connector-curvature="0"
           id="path4557"
           d="m 535.7601,722.84624 c 1.34369,0 -2.14991,3.62798 1.7468,4.29983 3.89671,0.67184 5.10604,-0.94059 5.24041,-3.0905 0.13437,-2.14991 0.40311,-3.35924 0.40311,-3.35924 l -7.9278,0.13437 z"
           style="fill:url(#linearGradient4563);fill-opacity:1;fill-rule:evenodd;stroke:none;stroke-width:0.65096772px;stroke-linecap:butt;stroke-linejoin:miter;stroke-opacity:1" />
      </g>
      <g
         transform="translate(158.69335,-63.048855)"
         id="g5043"
         style="stroke-width:0.65096772">
        <path
           style="fill:url(#linearGradient5059);fill-opacity:1;fill-rule:evenodd;stroke:none;stroke-width:0.65096772px;stroke-linecap:butt;stroke-linejoin:miter;stroke-opacity:1"
           d="m 347.88706,779.88873 106.04738,-24.79099 -2.77786,-9.15059 -64.38091,16.34034 -1.96084,1.14382 -38.46524,10.99414 z"
           id="path5045"
           inkscape:connector-curvature="0"
           sodipodi:nodetypes="ccccccc" />
        <path
           sodipodi:nodetypes="ccccccccc"
           style="fill:url(#linearGradient5061);fill-opacity:1;fill-rule:evenodd;stroke:none;stroke-width:0.65096772px;stroke-linecap:butt;stroke-linejoin:miter;stroke-opacity:1"
           d="m 435.79667,751.82967 -50.82446,12.71638 -0.15738,-1.11474 66.34175,-17.48416 -1.47063,-4.41189 -105.04644,25.42239 1.71008,7.4678 89.93729,-21.61536 z"
           id="path5047"
           inkscape:connector-curvature="0" />
        <path
           style="fill:url(#linearGradient5063);fill-opacity:1;fill-rule:evenodd;stroke:none;stroke-width:0.65096772px;stroke-linecap:butt;stroke-linejoin:miter;stroke-opacity:1"
           d="m 391.35097,757.8756 59.64221,-12.90887 -5.22891,-14.54289 c 0,0 -27.28835,5.39231 -38.07297,5.88252 -10.78462,0.49021 -14.5429,0.65361 -16.99395,1.30722 -2.45105,0.65362 -35.37016,10.75087 -35.37016,10.75087 l -14.73991,3.91682 4.05223,14.67638 z"
           id="path5049"
           inkscape:connector-curvature="0"
           sodipodi:nodetypes="cccsscccc" />
        <path
           style="fill:url(#linearGradient5065);fill-opacity:1;fill-rule:evenodd;stroke:none;stroke-width:0.65096772px;stroke-linecap:butt;stroke-linejoin:miter;stroke-opacity:1"
           d="m 450.01276,741.69867 c 0,0 -20.42542,3.43147 -25.16411,4.08508 -0.90132,0.12432 -1.96313,0.90648 -4.67966,1.56246 -9.0086,2.17536 -25.92831,6.65608 -32.96967,8.53107 -1.99872,0.53222 -33.84561,3.16435 -33.84561,3.16435 l 32.99161,-0.95556 c 0,0 31.47698,-8.38064 37.0327,-9.52446 5.55571,-1.14383 26.63474,-6.86294 26.63474,-6.86294 z"
           id="path5051"
           inkscape:connector-curvature="0"
           sodipodi:nodetypes="csssccsc" />
        <path
           style="fill:url(#linearGradient5067);fill-opacity:1;fill-rule:evenodd;stroke:none;stroke-width:0.65096772px;stroke-linecap:butt;stroke-linejoin:miter;stroke-opacity:1"
           d="m 390.37055,752.48329 c 0,0 31.21003,-7.84336 32.84406,-7.84336 1.63404,0 2.94126,-0.49021 4.7387,-1.14383 1.79744,-0.65361 20.42542,-5.2289 20.42542,-5.2289 l -0.81702,-3.10467 c 0,0 -25.16411,5.88252 -28.10537,6.53614 -2.94126,0.65361 -12.41865,1.14382 -12.41865,1.14382 0,0 -3.75828,2.28765 -1.96084,2.61445 1.79743,0.32681 18.95478,-3.43147 18.95478,-3.43147 0,0 -37.90957,9.8042 -40.03381,10.13101 -2.12425,0.32681 6.37273,0.32681 6.37273,0.32681 z"
           id="path5053"
           inkscape:connector-curvature="0" />
        <path
           style="fill:url(#linearGradient5069);fill-opacity:1;fill-rule:evenodd;stroke:none;stroke-width:0.65096772px;stroke-linecap:butt;stroke-linejoin:miter;stroke-opacity:1"
           d="m 410.04942,743.10356 c 0,0 -10.21416,0.32948 -13.17957,1.64744 -2.9654,1.31796 -3.13015,3.78913 -3.13015,3.78913 0,0 2.80066,-1.4827 5.43658,-2.14168 2.63591,-0.65898 10.87314,-3.29489 10.87314,-3.29489 z"
           id="path5055"
           inkscape:connector-curvature="0" />
        <path
           sodipodi:nodetypes="ccccscc"
           style="fill:url(#linearGradient5071);fill-opacity:1;fill-rule:evenodd;stroke:none;stroke-width:0.65096772px;stroke-linecap:butt;stroke-linejoin:miter;stroke-opacity:1"
           d="m 443.95346,733.36853 c 0,0 -34.44733,6.17889 -39.23597,7.10572 -4.78865,0.92684 -40.0939,10.79379 -41.1752,12.64746 -1.08131,1.85367 1.51673,-4.43771 1.51673,-4.43771 0,0 36.41455,-9.29105 39.50399,-9.13658 3.08945,0.15447 2.00814,-0.61789 3.39839,-0.92683 1.39026,-0.30895 35.99206,-5.25206 35.99206,-5.25206 z"
           id="path5057"
           inkscape:connector-curvature="0" />
      </g>
      <path
         sodipodi:nodetypes="cccccc"
         inkscape:connector-curvature="0"
         id="path5136"
         d="m 536.26632,709.65129 c 1.99692,0 76.34408,-17.66513 76.34408,-17.66513 l -23.19509,-76.95853 -103.99385,25.80645 17.2043,75.26882 z"
         style="fill:none;fill-rule:evenodd;stroke:#ffffff;stroke-width:0.65096772px;stroke-linecap:butt;stroke-linejoin:miter;stroke-opacity:1" />
      <g
         transform="rotate(-130.75992,476.18216,614.80621)"
         id="g5249"
         style="stroke-width:0.65096772">
        <path
           style="fill:url(#linearGradient5179);fill-opacity:1;fill-rule:evenodd;stroke:url(#linearGradient5171);stroke-width:0.97645158;stroke-linecap:butt;stroke-linejoin:miter;stroke-miterlimit:4;stroke-dasharray:none;stroke-opacity:1"
           d="m 421.68971,671.40982 c 0,0 12.44239,-26.42089 14.1321,-29.8003 1.68971,-3.37942 19.50845,-32.56529 21.50538,-33.48695 1.99693,-0.92166 2.91859,-0.76805 3.84024,-0.15361 0.92166,0.61444 0,2.45776 0,3.68664 0,1.22888 -14.1321,30.87558 -17.51152,36.71275 -3.37941,5.83717 -16.58986,25.19201 -16.58986,25.19201 z"
           id="path5163"
           inkscape:connector-curvature="0" />
        <path
           style="fill:url(#linearGradient5189);fill-opacity:1;fill-rule:evenodd;stroke:none;stroke-width:0.65096772px;stroke-linecap:butt;stroke-linejoin:miter;stroke-opacity:1"
           d="m 423.40254,672.15886 c 0,0 8.50974,-19.55216 9.92804,-21.37568 1.41829,-1.82351 10.63718,-19.34954 11.95416,-19.24823 1.31699,0.1013 -9.72542,22.38874 -12.76462,28.16321 -3.03919,5.77447 -6.07839,12.4607 -7.49668,12.96724 -1.41829,0.50653 -1.6209,-0.50654 -1.6209,-0.50654 z"
           id="path5181"
           inkscape:connector-curvature="0"
           sodipodi:nodetypes="cssssc" />
        <path
           style="fill:url(#linearGradient5207);fill-opacity:1;fill-rule:evenodd;stroke:url(#linearGradient5199);stroke-width:0.65096772px;stroke-linecap:butt;stroke-linejoin:miter;stroke-opacity:1"
           d="m 421.47771,671.24711 5.87577,2.43135 -13.87898,23.19919 c 0,0 -0.96241,0.20261 -2.12743,-0.50654 -1.0946,-0.66629 -0.81046,-1.6209 -0.81046,-1.6209 z"
           id="path5191"
           inkscape:connector-curvature="0"
           sodipodi:nodetypes="cccscc" />
        <path
           style="fill:url(#linearGradient5225);fill-opacity:1;fill-rule:evenodd;stroke:none;stroke-width:0.65096772px;stroke-linecap:butt;stroke-linejoin:miter;stroke-opacity:1"
           d="m 412.07466,695.35696 c 0,0 5.66561,-7.81711 6.31106,-9.10801 0.64545,-1.2909 6.16763,-11.04435 6.16763,-11.04435 l -2.79695,-1.07575 c -3.23922,7.07071 -6.2639,11.21672 -9.68174,21.22811 z"
           id="path5209"
           inkscape:connector-curvature="0"
           sodipodi:nodetypes="csccc" />
        <path
           style="fill:url(#radialGradient5245);fill-opacity:1;fill-rule:evenodd;stroke:none;stroke-width:0.65096772px;stroke-linecap:butt;stroke-linejoin:miter;stroke-opacity:1"
           d="m 404.39808,707.90072 c 0,0 6.77915,-4.36282 7.92019,-6.84627 1.14105,-2.48345 1.69184,-4.38947 0,-5.43675 -2.42467,-1.50091 -3.96009,0.13424 -5.03402,2.08073 -1.07392,1.94649 -2.88617,10.20229 -2.88617,10.20229 z"
           id="path5237"
           inkscape:connector-curvature="0"
           sodipodi:nodetypes="csssc" />
      </g>
      <path
         sodipodi:open="true"
         d="M 544.35766,712.20576 A 38.035641,38.035641 0 0 1 504.20671,726.4349 38.035641,38.035641 0 0 1 476.03284,694.48495"
         sodipodi:end="3.0132682"
         sodipodi:start="0.63586371"
         sodipodi:ry="38.035641"
         sodipodi:rx="38.035641"
         sodipodi:cy="689.61743"
         sodipodi:cx="513.75574"
         sodipodi:type="arc"
         id="path938"
         style="opacity:1;fill:none;fill-opacity:1;stroke:url(#radialGradient1357);stroke-width:6.50967646;stroke-linecap:round;stroke-linejoin:round;stroke-miterlimit:4;stroke-dasharray:none;stroke-dashoffset:0;stroke-opacity:1" />
      <path
         style="opacity:1;fill:url(#linearGradient1359);fill-opacity:1;stroke:#38ff08;stroke-width:0;stroke-linecap:round;stroke-linejoin:round;stroke-miterlimit:4;stroke-dasharray:none;stroke-dashoffset:0;stroke-opacity:1"
         d="m 535.54538,706.47934 21.52129,-12.89558 -3.96638,25.52279 z"
         id="path1258"
         inkscape:connector-curvature="0"
         sodipodi:nodetypes="cccc" />
      <g
         transform="rotate(-180,515.20307,691.14283)"
         id="g1292"
         style="stroke-width:0.65096772">
        <path
           sodipodi:open="true"
           d="m 545.6643,715.25459 a 38.035641,38.035641 0 0 1 -40.15095,14.22914 38.035641,38.035641 0 0 1 -28.17387,-31.94995"
           sodipodi:end="3.0132682"
           sodipodi:start="0.63586371"
           sodipodi:ry="38.035641"
           sodipodi:rx="38.035641"
           sodipodi:cy="692.66626"
           sodipodi:cx="515.06238"
           sodipodi:type="arc"
           id="path1282"
           style="opacity:1;fill:none;fill-opacity:1;stroke:url(#radialGradient1294);stroke-width:6.50967646;stroke-linecap:round;stroke-linejoin:round;stroke-miterlimit:4;stroke-dasharray:none;stroke-dashoffset:0;stroke-opacity:1" />
        <path
           style="opacity:1;fill:url(#linearGradient1296);fill-opacity:1;stroke:#38ff08;stroke-width:0;stroke-linecap:round;stroke-linejoin:round;stroke-miterlimit:4;stroke-dasharray:none;stroke-dashoffset:0;stroke-opacity:1"
           d="m 536.85203,709.5282 21.52129,-12.89558 -3.96638,25.52279 z"
           id="path1284"
           inkscape:connector-curvature="0"
           sodipodi:nodetypes="cccc" />
      </g>
      <path
         sodipodi:nodetypes="cccccc"
         inkscape:connector-curvature="0"
         id="path1298"
         d="m 516.78037,674.9631 -15.04558,-3.65011 -6.49403,3.30529 4.03987,14.61413 14.73991,-3.91682 z"
         style="opacity:1;fill:url(#linearGradient1306);fill-opacity:1;stroke:#38ff08;stroke-width:0;stroke-linecap:round;stroke-linejoin:round;stroke-miterlimit:4;stroke-dasharray:none;stroke-dashoffset:0;stroke-opacity:1" />
      <path
         sodipodi:nodetypes="cccssccssc"
         inkscape:connector-curvature="0"
         id="path1308"
         d="m 495.24076,674.61828 c 0.43555,2.2322 1.85109,2.77664 3.53885,2.83109 1.68776,0.0544 1.7422,-0.16334 2.77664,0.87109 1.03443,1.03444 0.97999,1.95998 2.99441,0.21778 2.01442,-1.7422 1.79664,-1.68776 4.24662,-1.85109 2.44997,-0.16333 3.15774,0.48999 3.91995,-0.21778 0.76222,-0.70777 4.06314,-1.50627 4.06314,-1.50627 0,0 -1.41554,-1.90553 -2.39553,-2.28664 -0.97999,-0.38111 -11.24972,-1.8148 -13.2097,-1.48814 -1.95998,0.32666 -5.19232,2.35925 -5.93438,3.42996 z"
         style="opacity:1;fill:url(#linearGradient1361);fill-opacity:1;stroke:#38ff08;stroke-width:0;stroke-linecap:round;stroke-linejoin:round;stroke-miterlimit:4;stroke-dasharray:none;stroke-dashoffset:0;stroke-opacity:1" />
    </g>
  </g>
</svg>
